<mxfile host="app.diagrams.net" modified="2024-07-03T16:14:30.498Z" agent="Mozilla/5.0 (Macintosh; Intel Mac OS X 10_15_7) AppleWebKit/605.1.15 (KHTML, like Gecko) Version/17.5 Safari/605.1.15" etag="FRUwpYQ4g2M39TsMILh8" version="24.6.4" type="device">
  <diagram id="C5RBs43oDa-KdzZeNtuy" name="Page-1">
    <mxGraphModel dx="1740" dy="675" grid="1" gridSize="10" guides="1" tooltips="1" connect="1" arrows="1" fold="1" page="1" pageScale="1" pageWidth="827" pageHeight="1169" math="0" shadow="0">
      <root>
        <mxCell id="WIyWlLk6GJQsqaUBKTNV-0" />
        <mxCell id="WIyWlLk6GJQsqaUBKTNV-1" parent="WIyWlLk6GJQsqaUBKTNV-0" />
        <mxCell id="ZZYE-I0VGxLyNERj9Y0E-6" style="edgeStyle=orthogonalEdgeStyle;rounded=0;orthogonalLoop=1;jettySize=auto;html=1;exitX=0;exitY=0.5;exitDx=0;exitDy=0;entryX=0.5;entryY=0;entryDx=0;entryDy=0;" edge="1" parent="WIyWlLk6GJQsqaUBKTNV-1" source="ZZYE-I0VGxLyNERj9Y0E-0" target="ZZYE-I0VGxLyNERj9Y0E-1">
          <mxGeometry relative="1" as="geometry" />
        </mxCell>
        <mxCell id="ZZYE-I0VGxLyNERj9Y0E-7" style="edgeStyle=orthogonalEdgeStyle;rounded=0;orthogonalLoop=1;jettySize=auto;html=1;exitX=1;exitY=0.5;exitDx=0;exitDy=0;entryX=0.5;entryY=0;entryDx=0;entryDy=0;" edge="1" parent="WIyWlLk6GJQsqaUBKTNV-1" source="ZZYE-I0VGxLyNERj9Y0E-0" target="ZZYE-I0VGxLyNERj9Y0E-2">
          <mxGeometry relative="1" as="geometry" />
        </mxCell>
        <mxCell id="ZZYE-I0VGxLyNERj9Y0E-0" value="start" style="ellipse;whiteSpace=wrap;html=1;aspect=fixed;" vertex="1" parent="WIyWlLk6GJQsqaUBKTNV-1">
          <mxGeometry x="400" y="40" width="40" height="40" as="geometry" />
        </mxCell>
        <mxCell id="ZZYE-I0VGxLyNERj9Y0E-11" style="edgeStyle=orthogonalEdgeStyle;rounded=0;orthogonalLoop=1;jettySize=auto;html=1;exitX=0.5;exitY=1;exitDx=0;exitDy=0;entryX=0.5;entryY=0;entryDx=0;entryDy=0;" edge="1" parent="WIyWlLk6GJQsqaUBKTNV-1" source="ZZYE-I0VGxLyNERj9Y0E-1" target="ZZYE-I0VGxLyNERj9Y0E-9">
          <mxGeometry relative="1" as="geometry" />
        </mxCell>
        <mxCell id="ZZYE-I0VGxLyNERj9Y0E-1" value="Registration" style="rounded=1;whiteSpace=wrap;html=1;" vertex="1" parent="WIyWlLk6GJQsqaUBKTNV-1">
          <mxGeometry x="200" y="120" width="120" height="30" as="geometry" />
        </mxCell>
        <mxCell id="ZZYE-I0VGxLyNERj9Y0E-12" style="edgeStyle=orthogonalEdgeStyle;rounded=0;orthogonalLoop=1;jettySize=auto;html=1;exitX=0.5;exitY=1;exitDx=0;exitDy=0;entryX=0.5;entryY=0;entryDx=0;entryDy=0;" edge="1" parent="WIyWlLk6GJQsqaUBKTNV-1" source="ZZYE-I0VGxLyNERj9Y0E-2" target="ZZYE-I0VGxLyNERj9Y0E-10">
          <mxGeometry relative="1" as="geometry" />
        </mxCell>
        <mxCell id="ZZYE-I0VGxLyNERj9Y0E-2" value="Login" style="rounded=1;whiteSpace=wrap;html=1;" vertex="1" parent="WIyWlLk6GJQsqaUBKTNV-1">
          <mxGeometry x="520" y="120" width="120" height="30" as="geometry" />
        </mxCell>
        <mxCell id="ZZYE-I0VGxLyNERj9Y0E-14" style="edgeStyle=orthogonalEdgeStyle;rounded=0;orthogonalLoop=1;jettySize=auto;html=1;exitX=0.5;exitY=1;exitDx=0;exitDy=0;entryX=0.5;entryY=0;entryDx=0;entryDy=0;" edge="1" parent="WIyWlLk6GJQsqaUBKTNV-1" source="ZZYE-I0VGxLyNERj9Y0E-9" target="ZZYE-I0VGxLyNERj9Y0E-13">
          <mxGeometry relative="1" as="geometry" />
        </mxCell>
        <mxCell id="ZZYE-I0VGxLyNERj9Y0E-9" value="Form Fill up" style="rounded=1;whiteSpace=wrap;html=1;" vertex="1" parent="WIyWlLk6GJQsqaUBKTNV-1">
          <mxGeometry x="200" y="190" width="120" height="30" as="geometry" />
        </mxCell>
        <mxCell id="ZZYE-I0VGxLyNERj9Y0E-18" style="edgeStyle=orthogonalEdgeStyle;rounded=0;orthogonalLoop=1;jettySize=auto;html=1;exitX=0.5;exitY=1;exitDx=0;exitDy=0;entryX=0.5;entryY=0;entryDx=0;entryDy=0;" edge="1" parent="WIyWlLk6GJQsqaUBKTNV-1" source="ZZYE-I0VGxLyNERj9Y0E-10" target="ZZYE-I0VGxLyNERj9Y0E-17">
          <mxGeometry relative="1" as="geometry" />
        </mxCell>
        <mxCell id="ZZYE-I0VGxLyNERj9Y0E-10" value="Submit the Credential" style="rounded=1;whiteSpace=wrap;html=1;" vertex="1" parent="WIyWlLk6GJQsqaUBKTNV-1">
          <mxGeometry x="520" y="190" width="120" height="30" as="geometry" />
        </mxCell>
        <mxCell id="ZZYE-I0VGxLyNERj9Y0E-15" style="edgeStyle=orthogonalEdgeStyle;rounded=0;orthogonalLoop=1;jettySize=auto;html=1;exitX=1;exitY=0.5;exitDx=0;exitDy=0;entryX=1;entryY=0.5;entryDx=0;entryDy=0;" edge="1" parent="WIyWlLk6GJQsqaUBKTNV-1" source="ZZYE-I0VGxLyNERj9Y0E-13" target="ZZYE-I0VGxLyNERj9Y0E-9">
          <mxGeometry relative="1" as="geometry" />
        </mxCell>
        <mxCell id="ZZYE-I0VGxLyNERj9Y0E-16" value="NO" style="edgeLabel;html=1;align=center;verticalAlign=middle;resizable=0;points=[];" vertex="1" connectable="0" parent="ZZYE-I0VGxLyNERj9Y0E-15">
          <mxGeometry x="0.1141" y="-2" relative="1" as="geometry">
            <mxPoint as="offset" />
          </mxGeometry>
        </mxCell>
        <mxCell id="ZZYE-I0VGxLyNERj9Y0E-33" style="edgeStyle=orthogonalEdgeStyle;rounded=0;orthogonalLoop=1;jettySize=auto;html=1;exitX=0.5;exitY=1;exitDx=0;exitDy=0;entryX=0.5;entryY=0;entryDx=0;entryDy=0;" edge="1" parent="WIyWlLk6GJQsqaUBKTNV-1" source="ZZYE-I0VGxLyNERj9Y0E-13" target="ZZYE-I0VGxLyNERj9Y0E-30">
          <mxGeometry relative="1" as="geometry" />
        </mxCell>
        <mxCell id="ZZYE-I0VGxLyNERj9Y0E-13" value="Form Validation" style="rhombus;whiteSpace=wrap;html=1;" vertex="1" parent="WIyWlLk6GJQsqaUBKTNV-1">
          <mxGeometry x="205" y="260" width="110" height="100" as="geometry" />
        </mxCell>
        <mxCell id="ZZYE-I0VGxLyNERj9Y0E-19" style="edgeStyle=orthogonalEdgeStyle;rounded=0;orthogonalLoop=1;jettySize=auto;html=1;exitX=0;exitY=0.5;exitDx=0;exitDy=0;entryX=0;entryY=0.5;entryDx=0;entryDy=0;" edge="1" parent="WIyWlLk6GJQsqaUBKTNV-1" source="ZZYE-I0VGxLyNERj9Y0E-17" target="ZZYE-I0VGxLyNERj9Y0E-10">
          <mxGeometry relative="1" as="geometry" />
        </mxCell>
        <mxCell id="ZZYE-I0VGxLyNERj9Y0E-20" value="NO" style="edgeLabel;html=1;align=center;verticalAlign=middle;resizable=0;points=[];" vertex="1" connectable="0" parent="ZZYE-I0VGxLyNERj9Y0E-19">
          <mxGeometry x="0.1732" y="-1" relative="1" as="geometry">
            <mxPoint as="offset" />
          </mxGeometry>
        </mxCell>
        <mxCell id="ZZYE-I0VGxLyNERj9Y0E-22" style="edgeStyle=orthogonalEdgeStyle;rounded=0;orthogonalLoop=1;jettySize=auto;html=1;exitX=0.5;exitY=1;exitDx=0;exitDy=0;entryX=0.5;entryY=0;entryDx=0;entryDy=0;" edge="1" parent="WIyWlLk6GJQsqaUBKTNV-1" source="ZZYE-I0VGxLyNERj9Y0E-17" target="ZZYE-I0VGxLyNERj9Y0E-21">
          <mxGeometry relative="1" as="geometry" />
        </mxCell>
        <mxCell id="ZZYE-I0VGxLyNERj9Y0E-23" value="YES" style="edgeLabel;html=1;align=center;verticalAlign=middle;resizable=0;points=[];" vertex="1" connectable="0" parent="ZZYE-I0VGxLyNERj9Y0E-22">
          <mxGeometry x="-0.0995" y="1" relative="1" as="geometry">
            <mxPoint as="offset" />
          </mxGeometry>
        </mxCell>
        <mxCell id="ZZYE-I0VGxLyNERj9Y0E-17" value="Credential Validation" style="rhombus;whiteSpace=wrap;html=1;" vertex="1" parent="WIyWlLk6GJQsqaUBKTNV-1">
          <mxGeometry x="525" y="260" width="110" height="100" as="geometry" />
        </mxCell>
        <mxCell id="ZZYE-I0VGxLyNERj9Y0E-25" style="edgeStyle=orthogonalEdgeStyle;rounded=0;orthogonalLoop=1;jettySize=auto;html=1;exitX=0.5;exitY=1;exitDx=0;exitDy=0;entryX=0.5;entryY=0;entryDx=0;entryDy=0;" edge="1" parent="WIyWlLk6GJQsqaUBKTNV-1" source="ZZYE-I0VGxLyNERj9Y0E-21" target="ZZYE-I0VGxLyNERj9Y0E-24">
          <mxGeometry relative="1" as="geometry" />
        </mxCell>
        <mxCell id="ZZYE-I0VGxLyNERj9Y0E-21" value="JWT creation / verification" style="rounded=1;whiteSpace=wrap;html=1;" vertex="1" parent="WIyWlLk6GJQsqaUBKTNV-1">
          <mxGeometry x="520" y="400" width="120" height="30" as="geometry" />
        </mxCell>
        <mxCell id="ZZYE-I0VGxLyNERj9Y0E-28" style="edgeStyle=orthogonalEdgeStyle;rounded=0;orthogonalLoop=1;jettySize=auto;html=1;exitX=0;exitY=0.5;exitDx=0;exitDy=0;entryX=0.5;entryY=0;entryDx=0;entryDy=0;" edge="1" parent="WIyWlLk6GJQsqaUBKTNV-1" source="ZZYE-I0VGxLyNERj9Y0E-24" target="ZZYE-I0VGxLyNERj9Y0E-26">
          <mxGeometry relative="1" as="geometry" />
        </mxCell>
        <mxCell id="ZZYE-I0VGxLyNERj9Y0E-36" value="If Admin" style="edgeLabel;html=1;align=center;verticalAlign=middle;resizable=0;points=[];" vertex="1" connectable="0" parent="ZZYE-I0VGxLyNERj9Y0E-28">
          <mxGeometry x="0.2594" y="2" relative="1" as="geometry">
            <mxPoint as="offset" />
          </mxGeometry>
        </mxCell>
        <mxCell id="ZZYE-I0VGxLyNERj9Y0E-29" style="edgeStyle=orthogonalEdgeStyle;rounded=0;orthogonalLoop=1;jettySize=auto;html=1;exitX=1;exitY=0.5;exitDx=0;exitDy=0;entryX=0.5;entryY=0;entryDx=0;entryDy=0;" edge="1" parent="WIyWlLk6GJQsqaUBKTNV-1" source="ZZYE-I0VGxLyNERj9Y0E-24" target="ZZYE-I0VGxLyNERj9Y0E-27">
          <mxGeometry relative="1" as="geometry" />
        </mxCell>
        <mxCell id="ZZYE-I0VGxLyNERj9Y0E-37" value="If User" style="edgeLabel;html=1;align=center;verticalAlign=middle;resizable=0;points=[];" vertex="1" connectable="0" parent="ZZYE-I0VGxLyNERj9Y0E-29">
          <mxGeometry x="0.2298" y="2" relative="1" as="geometry">
            <mxPoint as="offset" />
          </mxGeometry>
        </mxCell>
        <mxCell id="ZZYE-I0VGxLyNERj9Y0E-24" value="Check Role" style="rounded=1;whiteSpace=wrap;html=1;" vertex="1" parent="WIyWlLk6GJQsqaUBKTNV-1">
          <mxGeometry x="520" y="460" width="120" height="30" as="geometry" />
        </mxCell>
        <mxCell id="ZZYE-I0VGxLyNERj9Y0E-26" value="redirect to Admin Panel" style="rounded=1;whiteSpace=wrap;html=1;" vertex="1" parent="WIyWlLk6GJQsqaUBKTNV-1">
          <mxGeometry x="400" y="550" width="120" height="30" as="geometry" />
        </mxCell>
        <mxCell id="ZZYE-I0VGxLyNERj9Y0E-27" value="Redirect to the User Page" style="rounded=1;whiteSpace=wrap;html=1;" vertex="1" parent="WIyWlLk6GJQsqaUBKTNV-1">
          <mxGeometry x="640" y="550" width="120" height="30" as="geometry" />
        </mxCell>
        <mxCell id="ZZYE-I0VGxLyNERj9Y0E-34" style="edgeStyle=orthogonalEdgeStyle;rounded=0;orthogonalLoop=1;jettySize=auto;html=1;exitX=0.5;exitY=1;exitDx=0;exitDy=0;entryX=0.5;entryY=0;entryDx=0;entryDy=0;" edge="1" parent="WIyWlLk6GJQsqaUBKTNV-1" source="ZZYE-I0VGxLyNERj9Y0E-30" target="ZZYE-I0VGxLyNERj9Y0E-31">
          <mxGeometry relative="1" as="geometry" />
        </mxCell>
        <mxCell id="ZZYE-I0VGxLyNERj9Y0E-30" value="Hashed Password" style="rounded=1;whiteSpace=wrap;html=1;" vertex="1" parent="WIyWlLk6GJQsqaUBKTNV-1">
          <mxGeometry x="200" y="400" width="120" height="30" as="geometry" />
        </mxCell>
        <mxCell id="ZZYE-I0VGxLyNERj9Y0E-43" style="edgeStyle=orthogonalEdgeStyle;rounded=0;orthogonalLoop=1;jettySize=auto;html=1;exitX=0.5;exitY=1;exitDx=0;exitDy=0;entryX=0.5;entryY=0;entryDx=0;entryDy=0;" edge="1" parent="WIyWlLk6GJQsqaUBKTNV-1" source="ZZYE-I0VGxLyNERj9Y0E-31" target="ZZYE-I0VGxLyNERj9Y0E-40">
          <mxGeometry relative="1" as="geometry" />
        </mxCell>
        <mxCell id="ZZYE-I0VGxLyNERj9Y0E-31" value="Store in Database" style="rounded=1;whiteSpace=wrap;html=1;" vertex="1" parent="WIyWlLk6GJQsqaUBKTNV-1">
          <mxGeometry x="200" y="470" width="120" height="30" as="geometry" />
        </mxCell>
        <mxCell id="ZZYE-I0VGxLyNERj9Y0E-38" value="End Registration" style="rounded=1;whiteSpace=wrap;html=1;" vertex="1" parent="WIyWlLk6GJQsqaUBKTNV-1">
          <mxGeometry x="200" y="650" width="120" height="30" as="geometry" />
        </mxCell>
        <mxCell id="ZZYE-I0VGxLyNERj9Y0E-41" style="edgeStyle=orthogonalEdgeStyle;rounded=0;orthogonalLoop=1;jettySize=auto;html=1;exitX=0.5;exitY=1;exitDx=0;exitDy=0;entryX=0.5;entryY=0;entryDx=0;entryDy=0;" edge="1" parent="WIyWlLk6GJQsqaUBKTNV-1" source="ZZYE-I0VGxLyNERj9Y0E-40" target="ZZYE-I0VGxLyNERj9Y0E-38">
          <mxGeometry relative="1" as="geometry" />
        </mxCell>
        <mxCell id="ZZYE-I0VGxLyNERj9Y0E-42" value="YES" style="edgeLabel;html=1;align=center;verticalAlign=middle;resizable=0;points=[];" vertex="1" connectable="0" parent="ZZYE-I0VGxLyNERj9Y0E-41">
          <mxGeometry x="-0.0659" y="2" relative="1" as="geometry">
            <mxPoint as="offset" />
          </mxGeometry>
        </mxCell>
        <mxCell id="ZZYE-I0VGxLyNERj9Y0E-44" style="edgeStyle=orthogonalEdgeStyle;rounded=0;orthogonalLoop=1;jettySize=auto;html=1;exitX=0;exitY=0.5;exitDx=0;exitDy=0;entryX=0;entryY=0.5;entryDx=0;entryDy=0;" edge="1" parent="WIyWlLk6GJQsqaUBKTNV-1" source="ZZYE-I0VGxLyNERj9Y0E-40" target="ZZYE-I0VGxLyNERj9Y0E-1">
          <mxGeometry relative="1" as="geometry" />
        </mxCell>
        <mxCell id="ZZYE-I0VGxLyNERj9Y0E-45" value="NO" style="edgeLabel;html=1;align=center;verticalAlign=middle;resizable=0;points=[];" vertex="1" connectable="0" parent="ZZYE-I0VGxLyNERj9Y0E-44">
          <mxGeometry x="-0.006" y="-4" relative="1" as="geometry">
            <mxPoint as="offset" />
          </mxGeometry>
        </mxCell>
        <mxCell id="ZZYE-I0VGxLyNERj9Y0E-40" value="Data Stored" style="rhombus;whiteSpace=wrap;html=1;" vertex="1" parent="WIyWlLk6GJQsqaUBKTNV-1">
          <mxGeometry x="220" y="540" width="80" height="80" as="geometry" />
        </mxCell>
      </root>
    </mxGraphModel>
  </diagram>
</mxfile>
